# xmcd
#
# Track frame offsets:
#	150
#	11269
#	21703
#	33558
#	43907
#	62124
#	77792
#	92595
#	105830
#	117607
#	127429
#	141922
#	160818
#	170292
#	185341
#	197690
#	210916
#	220224
#	232784
#	247215
#	261663
#	274802
#
# Disc length: 3816 seconds
#
# Revision: 0
# Processed by: cddbd v1.5.2PL0 Copyright (c) Steve Scherf et al.
# Submitted via: EasyCDDAExtractor 16.0.6.1
#
DISCID=460ee616
DTITLE=Various Artist - Country Sunset [Disc 10]
DYEAR=1900
DGENRE=Country
TTITLE0=Bill Anderson - Wild Weekend
TTITLE1=Leroy Van Dyke - If a Woman Answers
TTITLE2=Jeannie C. Riley - Country Girl
TTITLE3=George Hamilton - Abilene
TTITLE4=Michael Johnson and Alison Krausse - Whenever You Call Me Frriend
TTITLE5=Lacy J. Dalton - Takin' It Easy
TTITLE6=Glen Campbell - I'm So Lonesome I Could Cry
TTITLE7=Ray Kennedy - What a Way to Go
TTITLE8=Charlie Walker - Pick Me Up on Your Way Down
TTITLE9=David Houston - You Mean the World to Me
TTITLE10=Don Gibson - Gentle on My Mind
TTITLE11=Billy Joe Royal - I'll Pin a Note on Your Pillow
TTITLE12=Merle Haggard - The Legend of Bonnie and Clyde
TTITLE13=Johnny Rodriguez - Desperado
TTITLE14=Wilma Cooper and Stoney Lee - Big Midnight Special
TTITLE15=Kathy Mattea - Ball and Chain
TTITLE16=Johnny Cash - Luther Played the Boogie
TTITLE17=Johnny Paycheck - I'm a Rambling Man
TTITLE18=Don Williams - My Woman's Love
TTITLE19=Mickey Gilley - Paradise Tonight
TTITLE20=Tammy Wynette - Stand by Your Man
TTITLE21=Jerry Lee Lewis - Can't Seem to Say Goodbye
EXTD=
EXTT0=
EXTT1=
EXTT2=
EXTT3=
EXTT4=
EXTT5=
EXTT6=
EXTT7=
EXTT8=
EXTT9=
EXTT10=
EXTT11=
EXTT12=
EXTT13=
EXTT14=
EXTT15=
EXTT16=
EXTT17=
EXTT18=
EXTT19=
EXTT20=
EXTT21=
PLAYORDER=
